<svg width="600" height="340" xmlns="http://www.w3.org/2000/svg">
  <rect x="20" y="20" width="180" height="60" fill="#e0e0e0" stroke="#333"/>
  <text x="110" y="55" font-size="16" text-anchor="middle" fill="#222">Cobra CLI</text>

  <rect x="220" y="20" width="180" height="60" fill="#e0e0e0" stroke="#333"/>
  <text x="310" y="55" font-size="16" text-anchor="middle" fill="#222">Config Loader</text>

  <rect x="420" y="20" width="160" height="60" fill="#e0e0e0" stroke="#333"/>
  <text x="500" y="55" font-size="16" text-anchor="middle" fill="#222">Schema Validator</text>

  <rect x="120" y="120" width="180" height="60" fill="#b3d9ff" stroke="#333"/>
  <text x="210" y="155" font-size="16" text-anchor="middle" fill="#222">Orchestration</text>

  <rect x="320" y="120" width="180" height="60" fill="#b3d9ff" stroke="#333"/>
  <text x="410" y="155" font-size="16" text-anchor="middle" fill="#222">Provider Abstraction</text>

  <rect x="60" y="220" width="120" height="60" fill="#ffe0b3" stroke="#333"/>
  <text x="120" y="255" font-size="14" text-anchor="middle" fill="#222">Azure Provider</text>

  <rect x="240" y="220" width="120" height="60" fill="#ffe0b3" stroke="#333"/>
  <text x="300" y="255" font-size="14" text-anchor="middle" fill="#222">AWS Provider</text>

  <rect x="420" y="220" width="120" height="60" fill="#ffe0b3" stroke="#333"/>
  <text x="480" y="255" font-size="14" text-anchor="middle" fill="#222">GCP Provider</text>

  <!-- Arrows -->
  <line x1="200" y1="50" x2="220" y2="50" stroke="#333" marker-end="url(#arrow)"/>
  <line x1="400" y1="50" x2="420" y2="50" stroke="#333" marker-end="url(#arrow)"/>
  <line x1="130" y1="80" x2="210" y2="120" stroke="#333" marker-end="url(#arrow)"/>
  <line x1="310" y1="80" x2="410" y2="120" stroke="#333" marker-end="url(#arrow)"/>
  <line x1="210" y1="180" x2="120" y2="220" stroke="#333" marker-end="url(#arrow)"/>
  <line x1="210" y1="180" x2="300" y2="220" stroke="#333" marker-end="url(#arrow)"/>
  <line x1="410" y1="180" x2="480" y2="220" stroke="#333" marker-end="url(#arrow)"/>

  <defs>
    <marker id="arrow" markerWidth="10" markerHeight="10" refX="10" refY="5" orient="auto" markerUnits="strokeWidth">
      <path d="M0,0 L10,5 L0,10 z" fill="#333" />
    </marker>
  </defs>
</svg>
